<?xml version="1.0" standalone="no"?>
<!DOCTYPE svg PUBLIC "-//W3C//DTD SVG 20010904//EN"
 "http://www.w3.org/TR/2001/REC-SVG-20010904/DTD/svg10.dtd">
<svg version="1.0" xmlns="http://www.w3.org/2000/svg"
 width="158.000000pt" height="172.000000pt" viewBox="0 0 158.000000 172.000000"
 preserveAspectRatio="xMidYMid meet">

<g transform="translate(0.000000,172.000000) scale(0.100000,-0.100000)"
fill="#000000" stroke="none">
<path d="M187 1679 c-86 -113 -103 -256 -50 -426 l16 -51 -31 -49 c-76 -119
-112 -235 -112 -363 1 -164 43 -265 162 -384 l78 -78 41 62 c41 60 108 120
136 120 11 0 11 -4 -1 -27 -39 -78 -106 -340 -106 -419 0 -32 27 -31 111 5 70
30 141 75 199 127 l35 32 160 5 c174 5 236 17 345 68 157 73 267 203 330 390
35 102 61 239 49 261 -9 17 -37 18 -635 18 -661 0 -671 1 -688 45 -9 25 -7 91
4 121 9 22 15 26 39 21 45 -9 147 11 203 39 57 29 137 99 180 158 l28 40 -32
14 c-18 7 -63 20 -100 28 -65 14 -89 12 -164 -11 -19 -6 -22 -2 -27 43 -8 67
-41 134 -97 195 l-46 50 -27 -34z m832 -891 c14 -24 14 -28 -3 -47 -23 -25
-49 -27 -70 -5 -21 20 -20 48 0 69 23 22 56 15 73 -17z"/>
</g>
</svg>
