<svg xmlns="http://www.w3.org/2000/svg" version="1.1" xmlns:xlink="http://www.w3.org/1999/xlink" xmlnssvgjs="http://svgjs.com/svgjs" width="512" height="512" x="0" y="0" viewBox="0 0 48 48" style="enable-background:new 0 0 512 512" xml:space="preserve" class="">
    <title>Мана</title>
    <g><g id="Icons"><path d="M24.1,41.846a3.089,3.089,0,0,1,.541.054L18,24.813V13a1,1,0,0,0-2,0V25a.994.994,0,0,0,.068.362l6.571,16.9A2.674,2.674,0,0,1,24.1,41.846Z" fill="#000000" data-original="#000000" class=""></path><path d="M44.356,16.216,30.734,24H17.266L4.073,16.461a14.47,14.47,0,0,1-.22,2.178L16.5,25.868A1,1,0,0,0,17,26H31a1,1,0,0,0,.5-.132L45.1,18.1A2.885,2.885,0,0,1,44.356,16.216Z" fill="#000000" data-original="#000000" class=""></path><path d="M24,44a1,1,0,0,1-.778-.372l-21-26A1,1,0,0,1,2.2,16.4l6-8a1,1,0,0,1,.353-.295l8-4A1,1,0,0,1,17,4H31a1,1,0,0,1,.447.105l8,4A1,1,0,0,1,39.8,8.4l6,8a1,1,0,0,1-.022,1.228l-21,26A1,1,0,0,1,24,44ZM4.267,16.978,24,41.408l19.733-24.43L38.342,9.789,30.764,6H17.236L9.658,9.789Z" fill="#000000" data-original="#000000" class=""></path><path d="M24,44a1,1,0,0,1-.778-.372l-21-26A1,1,0,0,1,2.2,16.4l6-8a1,1,0,0,1,.353-.295l8-4A1,1,0,0,1,17,4H31a1,1,0,0,1,.447.105l8,4A1,1,0,0,1,39.8,8.4l6,8a1,1,0,0,1-.022,1.228l-21,26A1,1,0,0,1,24,44ZM4.267,16.978,24,41.408l19.733-24.43L38.342,9.789,30.764,6H17.236L9.658,9.789Z" fill="#000000" data-original="#000000" class=""></path><path d="M31,12a1,1,0,0,0-1,1V24.813l-6.739,17.33a3.011,3.011,0,0,1,.5-.049,2.662,2.662,0,0,1,1.5.431l6.675-17.163A.994.994,0,0,0,32,25V13A1,1,0,0,0,31,12Z" fill="#000000" data-original="#000000" class=""></path><path d="M38.584,8.1c-.01.005-.021,0-.031.008L30.764,12H17.236L9.964,8.364a2.613,2.613,0,0,1-1.155,1.659L16.553,13.9A1,1,0,0,0,17,14H31a1,1,0,0,0,.447-.105l7.836-3.918A2.906,2.906,0,0,1,38.584,8.1Z" fill="#000000" data-original="#000000" class=""></path></g></g></svg>