<svg xmlns="http://www.w3.org/2000/svg" version="1.1" width="172px" height="172px" style="shape-rendering:geometricPrecision; text-rendering:geometricPrecision; image-rendering:optimizeQuality; fill-rule:evenodd; clip-rule:evenodd" xmlns:xlink="http://www.w3.org/1999/xlink" viewBox="0 0 172 172">
    <title>Большой брат прилёг поспать</title>
    <g><path style="opacity:1" fill="#ccd0d5" d="M 37.5,0.5 C 51.5061,3.34916 63.5061,9.84916 73.5,20C 126.531,15.2238 156.531,39.0572 163.5,91.5C 162.926,93.0589 162.26,94.5589 161.5,96C 118.416,96.0106 75.4162,96.6773 32.5,98C 28.8705,102.724 28.5372,107.724 31.5,113C 51.176,112.008 65.8427,120.175 75.5,137.5C 72.4953,140.012 68.9953,141.679 65,142.5C 57.7947,145.461 50.7947,145.127 44,141.5C 43.0736,153.693 37.7402,163.36 28,170.5C 22.0533,165.622 18.3867,159.289 17,151.5C 15.1619,140.701 16.3286,130.201 20.5,120C 13.9577,110.411 9.45773,99.9112 7,88.5C 3.10506,63.1519 11.7717,43.4853 33,29.5C 35.7457,36.9899 40.4123,42.9899 47,47.5C 44.7047,39.2647 42.3714,30.9314 40,22.5C 38.3694,15.2531 37.536,7.91979 37.5,0.5 Z M 100.5,67.5 C 101.815,68.4756 103.148,69.4756 104.5,70.5C 105.814,69.6872 106.981,68.6872 108,67.5C 109.5,69 111,70.5 112.5,72C 108.5,74.3333 108.5,76.6667 112.5,79C 111,80.5 109.5,82 108,83.5C 105.667,79.5 103.333,79.5 101,83.5C 99.5,82 98,80.5 96.5,79C 100.5,76.6667 100.5,74.3333 96.5,72C 98.0414,70.6288 99.3747,69.1288 100.5,67.5 Z"/></g>
</svg>
