<?xml version="1.0" encoding="UTF-8"?> <svg xmlns="http://www.w3.org/2000/svg" width="186" height="55" viewBox="0 0 186 55" fill="none"> <path fill-rule="evenodd" clip-rule="evenodd" d="M4.76552 16.4412C-2.74609 26.7227 -1.26149 38.4757 8.39833 44.79C8.75052 42.7327 11.9328 39.3334 13.7825 38.6981C11.5674 43.7089 9.91381 50.3425 10.1167 54.1143C14.1575 53.4183 18.4709 51.0263 21.5048 47.6882C39.1637 49.2817 47.74 41.5473 50 25.2736C49.8792 23.8365 49.6452 23.8215 48.0941 23.7219L48.0826 23.7211L9.21291 23.7835C7.04822 23.0292 6.57559 21.1479 7.7943 18.1381C13.5926 18.8562 18.3436 16.2581 22.0435 10.3423C17.4521 8.29589 14.023 8.03825 11.7562 9.57012C11.8617 6.01359 10.1967 2.82355 6.76337 0C2.76955 4.41973 2.1041 9.89987 4.76552 16.4412ZM32.7029 30.4032C32.7063 29.6387 32.0919 29.0219 31.3306 29.0252C30.5692 29.0286 29.9494 29.651 29.9461 30.4155C29.9427 31.18 30.5571 31.7976 31.3184 31.7942C32.0798 31.7909 32.6996 31.1678 32.7029 30.4032Z" fill="#1692FB"></path> <path d="M74.8786 7.25581L79.5666 12.9998H77.3746L72.9586 7.67181V12.9998H71.1186V1.7998H72.9586V6.82381L77.2146 1.7998H79.4066L74.8786 7.25581Z" fill="#102833"></path> <path d="M83.5068 10.8238L85.5548 4.99981H87.3948L84.3228 13.2558C83.9495 14.2691 83.4268 15.0265 82.7548 15.5278C82.0828 16.0291 81.3042 16.2531 80.4188 16.1998V14.5838C81.4428 14.6478 82.1522 14.1358 82.5468 13.0478L82.5948 12.9358L79.2348 4.99981H81.0748L83.5068 10.8238Z" fill="#102833"></path> <path d="M93.0033 4.79181C94.0913 4.79181 95.03 5.20247 95.8193 6.02381C96.598 6.83447 96.9873 7.82647 96.9873 8.99981C96.9873 10.1838 96.598 11.1811 95.8193 11.9918C95.0407 12.8025 94.102 13.2078 93.0033 13.2078C91.798 13.2078 90.8647 12.7598 90.2033 11.8638V16.1998H88.4753V4.99981H90.2033V6.1518C90.854 5.24514 91.7873 4.79181 93.0033 4.79181ZM90.9233 10.8398C91.4033 11.3198 92.006 11.5598 92.7313 11.5598C93.4567 11.5598 94.0593 11.3198 94.5393 10.8398C95.0193 10.3491 95.2593 9.73581 95.2593 8.99981C95.2593 8.26381 95.0193 7.65581 94.5393 7.17581C94.0593 6.68514 93.4567 6.43981 92.7313 6.43981C92.006 6.43981 91.4033 6.68514 90.9233 7.17581C90.4433 7.65581 90.2033 8.26381 90.2033 8.99981C90.2033 9.72514 90.4433 10.3385 90.9233 10.8398Z" fill="#102833"></path> <path d="M102.329 13.2078C101.124 13.2078 100.116 12.8025 99.3055 11.9918C98.5055 11.1705 98.1055 10.1731 98.1055 8.99981C98.1055 7.80514 98.5055 6.80781 99.3055 6.00781C100.116 5.19714 101.124 4.79181 102.329 4.79181C103.108 4.79181 103.817 4.97847 104.457 5.35181C105.097 5.72514 105.577 6.22647 105.897 6.85581L104.409 7.71981C104.228 7.33581 103.951 7.03714 103.577 6.82381C103.215 6.59981 102.793 6.48781 102.313 6.48781C101.609 6.48781 101.017 6.72781 100.537 7.20781C100.068 7.69847 99.8335 8.29581 99.8335 8.99981C99.8335 9.70381 100.068 10.3011 100.537 10.7918C101.017 11.2718 101.609 11.5118 102.313 11.5118C102.783 11.5118 103.204 11.4051 103.577 11.1918C103.961 10.9678 104.249 10.6638 104.441 10.2798L105.929 11.1278C105.588 11.7678 105.092 12.2745 104.441 12.6478C103.801 13.0211 103.097 13.2078 102.329 13.2078Z" fill="#102833"></path> <path d="M108.953 7.71981H110.713C111.577 7.71981 112.276 7.96514 112.809 8.45581C113.353 8.93581 113.625 9.57047 113.625 10.3598C113.625 11.1385 113.353 11.7731 112.809 12.2638C112.276 12.7545 111.577 12.9998 110.713 12.9998H107.225V4.99981H108.953V7.71981ZM114.585 12.9998V4.99981H116.313V12.9998H114.585ZM108.953 11.4478H110.729C111.071 11.4478 111.353 11.3465 111.577 11.1438C111.812 10.9411 111.929 10.6798 111.929 10.3598C111.929 10.0398 111.817 9.77847 111.593 9.57581C111.369 9.37314 111.081 9.27181 110.729 9.27181H108.953V11.4478Z" fill="#102833"></path> <path d="M71.0066 23.9998H78.1266V31.9998H76.3986V25.6318H72.7346V31.9998H71.0066V23.9998Z" fill="#102833"></path> <path d="M84.6596 23.7918C85.7476 23.7918 86.6863 24.2025 87.4756 25.0238C88.2543 25.8345 88.6436 26.8265 88.6436 27.9998C88.6436 29.1838 88.2543 30.1811 87.4756 30.9918C86.6969 31.8025 85.7583 32.2078 84.6596 32.2078C83.4543 32.2078 82.5209 31.7598 81.8596 30.8638V35.1998H80.1316V23.9998H81.8596V25.1518C82.5103 24.2451 83.4436 23.7918 84.6596 23.7918ZM82.5796 29.8398C83.0596 30.3198 83.6623 30.5598 84.3876 30.5598C85.1129 30.5598 85.7156 30.3198 86.1956 29.8398C86.6756 29.3491 86.9156 28.7358 86.9156 27.9998C86.9156 27.2638 86.6756 26.6558 86.1956 26.1758C85.7156 25.6851 85.1129 25.4398 84.3876 25.4398C83.6623 25.4398 83.0596 25.6851 82.5796 26.1758C82.0996 26.6558 81.8596 27.2638 81.8596 27.9998C81.8596 28.7251 82.0996 29.3385 82.5796 29.8398Z" fill="#102833"></path> <path d="M96.9777 30.9918C96.167 31.8025 95.1697 32.2078 93.9857 32.2078C92.8017 32.2078 91.8044 31.8025 90.9937 30.9918C90.1724 30.1705 89.7617 29.1731 89.7617 27.9998C89.7617 26.8265 90.1724 25.8291 90.9937 25.0078C91.8044 24.1971 92.8017 23.7918 93.9857 23.7918C95.1697 23.7918 96.167 24.1971 96.9777 25.0078C97.799 25.8291 98.2097 26.8265 98.2097 27.9998C98.2097 29.1731 97.799 30.1705 96.9777 30.9918ZM91.4897 27.9998C91.4897 28.7251 91.7297 29.3278 92.2097 29.8078C92.6897 30.2878 93.2817 30.5278 93.9857 30.5278C94.6897 30.5278 95.2817 30.2878 95.7617 29.8078C96.2417 29.3278 96.4817 28.7251 96.4817 27.9998C96.4817 27.2745 96.2417 26.6718 95.7617 26.1918C95.2817 25.7118 94.6897 25.4718 93.9857 25.4718C93.2817 25.4718 92.6897 25.7118 92.2097 26.1918C91.7297 26.6718 91.4897 27.2745 91.4897 27.9998Z" fill="#102833"></path> <path d="M99.7722 23.9998H105.132V25.6638H101.5V31.9998H99.7722V23.9998Z" fill="#102833"></path> <path d="M110.831 23.7918C111.919 23.7918 112.858 24.2025 113.647 25.0238C114.426 25.8345 114.815 26.8265 114.815 27.9998C114.815 29.1838 114.426 30.1811 113.647 30.9918C112.869 31.8025 111.93 32.2078 110.831 32.2078C109.626 32.2078 108.693 31.7598 108.031 30.8638V35.1998H106.303V23.9998H108.031V25.1518C108.682 24.2451 109.615 23.7918 110.831 23.7918ZM108.751 29.8398C109.231 30.3198 109.834 30.5598 110.559 30.5598C111.285 30.5598 111.887 30.3198 112.367 29.8398C112.847 29.3491 113.087 28.7358 113.087 27.9998C113.087 27.2638 112.847 26.6558 112.367 26.1758C111.887 25.6851 111.285 25.4398 110.559 25.4398C109.834 25.4398 109.231 25.6851 108.751 26.1758C108.271 26.6558 108.031 27.2638 108.031 27.9998C108.031 28.7251 108.271 29.3385 108.751 29.8398Z" fill="#102833"></path> <path d="M124.11 28.7358H117.742C117.87 29.3331 118.158 29.7971 118.606 30.1278C119.064 30.4585 119.63 30.6238 120.302 30.6238C121.208 30.6238 121.896 30.2931 122.366 29.6318L123.79 30.4638C123.011 31.6265 121.843 32.2078 120.286 32.2078C118.995 32.2078 117.944 31.8131 117.134 31.0238C116.334 30.2238 115.934 29.2158 115.934 27.9998C115.934 26.8158 116.328 25.8185 117.118 25.0078C117.896 24.1971 118.91 23.7918 120.158 23.7918C121.32 23.7918 122.28 24.2025 123.038 25.0238C123.795 25.8451 124.174 26.8425 124.174 28.0158C124.174 28.2291 124.152 28.4691 124.11 28.7358ZM117.726 27.3278H122.43C122.312 26.6985 122.046 26.2131 121.63 25.8718C121.224 25.5305 120.728 25.3598 120.142 25.3598C119.502 25.3598 118.968 25.5358 118.542 25.8878C118.115 26.2398 117.843 26.7198 117.726 27.3278Z" fill="#102833"></path> <path d="M129.423 32.2078C128.218 32.2078 127.21 31.8025 126.399 30.9918C125.599 30.1705 125.199 29.1731 125.199 27.9998C125.199 26.8051 125.599 25.8078 126.399 25.0078C127.21 24.1971 128.218 23.7918 129.423 23.7918C130.202 23.7918 130.911 23.9785 131.551 24.3518C132.191 24.7251 132.671 25.2265 132.991 25.8558L131.503 26.7198C131.322 26.3358 131.045 26.0371 130.671 25.8238C130.309 25.5998 129.887 25.4878 129.407 25.4878C128.703 25.4878 128.111 25.7278 127.631 26.2078C127.162 26.6985 126.927 27.2958 126.927 27.9998C126.927 28.7038 127.162 29.3011 127.631 29.7918C128.111 30.2718 128.703 30.5118 129.407 30.5118C129.877 30.5118 130.298 30.4051 130.671 30.1918C131.055 29.9678 131.343 29.6638 131.535 29.2798L133.023 30.1278C132.682 30.7678 132.186 31.2745 131.535 31.6478C130.895 32.0211 130.191 32.2078 129.423 32.2078Z" fill="#102833"></path> <path d="M137.923 32.2078C136.718 32.2078 135.71 31.8025 134.899 30.9918C134.099 30.1705 133.699 29.1731 133.699 27.9998C133.699 26.8051 134.099 25.8078 134.899 25.0078C135.71 24.1971 136.718 23.7918 137.923 23.7918C138.702 23.7918 139.411 23.9785 140.051 24.3518C140.691 24.7251 141.171 25.2265 141.491 25.8558L140.003 26.7198C139.822 26.3358 139.545 26.0371 139.171 25.8238C138.809 25.5998 138.387 25.4878 137.907 25.4878C137.203 25.4878 136.611 25.7278 136.131 26.2078C135.662 26.6985 135.427 27.2958 135.427 27.9998C135.427 28.7038 135.662 29.3011 136.131 29.7918C136.611 30.2718 137.203 30.5118 137.907 30.5118C138.377 30.5118 138.798 30.4051 139.171 30.1918C139.555 29.9678 139.843 29.6638 140.035 29.2798L141.523 30.1278C141.182 30.7678 140.686 31.2745 140.035 31.6478C139.395 32.0211 138.691 32.2078 137.923 32.2078Z" fill="#102833"></path> <path d="M144.515 29.0718L148.611 23.9998H149.939V31.9998H148.243V26.9118L144.147 31.9998H142.819V23.9998H144.515V29.0718Z" fill="#102833"></path> <path d="M157.48 27.8878C158.269 28.2611 158.664 28.8745 158.664 29.7278C158.664 30.4105 158.429 30.9598 157.96 31.3758C157.501 31.7918 156.861 31.9998 156.04 31.9998H151.944V23.9998H155.72C156.531 23.9998 157.165 24.2025 157.624 24.6078C158.083 25.0131 158.312 25.5465 158.312 26.2078C158.312 26.9651 158.035 27.5251 157.48 27.8878ZM155.592 25.4718H153.592V27.2478H155.592C156.296 27.2478 156.648 26.9491 156.648 26.3518C156.648 25.7651 156.296 25.4718 155.592 25.4718ZM153.592 30.4958H155.88C156.605 30.4958 156.968 30.1811 156.968 29.5518C156.968 29.2745 156.872 29.0611 156.68 28.9118C156.488 28.7518 156.221 28.6718 155.88 28.6718H153.592V30.4958Z" fill="#102833"></path> <path d="M165.461 27.1838V23.9998H167.189V31.9998H165.461V28.8158H161.797V31.9998H160.069V23.9998H161.797V27.1838H165.461Z" fill="#102833"></path> <path d="M175.962 30.9918C175.151 31.8025 174.154 32.2078 172.97 32.2078C171.786 32.2078 170.789 31.8025 169.978 30.9918C169.157 30.1705 168.746 29.1731 168.746 27.9998C168.746 26.8265 169.157 25.8291 169.978 25.0078C170.789 24.1971 171.786 23.7918 172.97 23.7918C174.154 23.7918 175.151 24.1971 175.962 25.0078C176.783 25.8291 177.194 26.8265 177.194 27.9998C177.194 29.1731 176.783 30.1705 175.962 30.9918ZM170.474 27.9998C170.474 28.7251 170.714 29.3278 171.194 29.8078C171.674 30.2878 172.266 30.5278 172.97 30.5278C173.674 30.5278 174.266 30.2878 174.746 29.8078C175.226 29.3278 175.466 28.7251 175.466 27.9998C175.466 27.2745 175.226 26.6718 174.746 26.1918C174.266 25.7118 173.674 25.4718 172.97 25.4718C172.266 25.4718 171.674 25.7118 171.194 26.1918C170.714 26.6718 170.474 27.2745 170.474 27.9998Z" fill="#102833"></path> <path d="M184.549 22.8798H180.069V21.3758H184.549V22.8798ZM180.453 29.0718L184.549 23.9998H185.877V31.9998H184.181V26.9118L180.085 31.9998H178.757V23.9998H180.453V29.0718Z" fill="#102833"></path> <path d="M77.4066 42.9998H79.1666V50.9998H77.4866V45.7358L75.1826 49.3998H74.9746L72.6866 45.7518V50.9998H71.0066V42.9998H72.7666L75.0866 46.6958L77.4066 42.9998Z" fill="#102833"></path> <path d="M87.4988 44.1358V42.9998H89.2268V50.9998H87.4988V49.8478C86.8482 50.7545 85.9148 51.2078 84.6988 51.2078C83.6002 51.2078 82.6615 50.8025 81.8828 49.9918C81.1042 49.1811 80.7148 48.1838 80.7148 46.9998C80.7148 45.8158 81.1042 44.8185 81.8828 44.0078C82.6615 43.1971 83.6002 42.7918 84.6988 42.7918C85.9148 42.7918 86.8482 43.2398 87.4988 44.1358ZM83.1628 48.8398C83.6428 49.3198 84.2455 49.5598 84.9708 49.5598C85.6962 49.5598 86.2988 49.3198 86.7788 48.8398C87.2588 48.3491 87.4988 47.7358 87.4988 46.9998C87.4988 46.2638 87.2588 45.6558 86.7788 45.1758C86.2988 44.6851 85.6962 44.4398 84.9708 44.4398C84.2455 44.4398 83.6428 44.6851 83.1628 45.1758C82.6828 45.6558 82.4428 46.2638 82.4428 46.9998C82.4428 47.7251 82.6828 48.3385 83.1628 48.8398Z" fill="#102833"></path> <path d="M90.393 42.9998H97.353V44.6638H94.745V50.9998H93.017V44.6638H90.393V42.9998Z" fill="#102833"></path> <path d="M105.938 47.7358H99.5697C99.6977 48.3331 99.9857 48.7971 100.434 49.1278C100.892 49.4585 101.458 49.6238 102.13 49.6238C103.036 49.6238 103.724 49.2931 104.194 48.6318L105.618 49.4638C104.839 50.6265 103.671 51.2078 102.114 51.2078C100.823 51.2078 99.7724 50.8131 98.9617 50.0238C98.1617 49.2238 97.7617 48.2158 97.7617 46.9998C97.7617 45.8158 98.1564 44.8185 98.9457 44.0078C99.7244 43.1971 100.738 42.7918 101.986 42.7918C103.148 42.7918 104.108 43.2025 104.866 44.0238C105.623 44.8451 106.002 45.8425 106.002 47.0158C106.002 47.2291 105.98 47.4691 105.938 47.7358ZM99.5537 46.3278H104.258C104.14 45.6985 103.874 45.2131 103.458 44.8718C103.052 44.5305 102.556 44.3598 101.97 44.3598C101.33 44.3598 100.796 44.5358 100.37 44.8878C99.943 45.2398 99.6711 45.7198 99.5537 46.3278Z" fill="#102833"></path> <path d="M113.922 42.9998H115.682V50.9998H114.002V45.7358L111.698 49.3998H111.49L109.202 45.7518V50.9998H107.522V42.9998H109.282L111.602 46.6958L113.922 42.9998Z" fill="#102833"></path> <path d="M124.014 44.1358V42.9998H125.742V50.9998H124.014V49.8478C123.364 50.7545 122.43 51.2078 121.214 51.2078C120.116 51.2078 119.177 50.8025 118.398 49.9918C117.62 49.1811 117.23 48.1838 117.23 46.9998C117.23 45.8158 117.62 44.8185 118.398 44.0078C119.177 43.1971 120.116 42.7918 121.214 42.7918C122.43 42.7918 123.364 43.2398 124.014 44.1358ZM119.678 48.8398C120.158 49.3198 120.761 49.5598 121.486 49.5598C122.212 49.5598 122.814 49.3198 123.294 48.8398C123.774 48.3491 124.014 47.7358 124.014 46.9998C124.014 46.2638 123.774 45.6558 123.294 45.1758C122.814 44.6851 122.212 44.4398 121.486 44.4398C120.761 44.4398 120.158 44.6851 119.678 45.1758C119.198 45.6558 118.958 46.2638 118.958 46.9998C118.958 47.7251 119.198 48.3385 119.678 48.8398Z" fill="#102833"></path> <path d="M126.909 42.9998H133.869V44.6638H131.261V50.9998H129.533V44.6638H126.909V42.9998Z" fill="#102833"></path> <path d="M136.734 48.0718L140.83 42.9998H142.158V50.9998H140.462V45.9118L136.366 50.9998H135.038V42.9998H136.734V48.0718Z" fill="#102833"></path> <path d="M147.587 46.9198L151.235 50.9998H149.171L145.891 47.3038V50.9998H144.163V42.9998H145.891V46.5358L148.995 42.9998H151.107L147.587 46.9198Z" fill="#102833"></path> <path d="M154.093 48.0718L158.189 42.9998H159.517V50.9998H157.821V45.9118L153.725 50.9998H152.397V42.9998H154.093V48.0718Z" fill="#102833"></path> </svg> 