<?xml version="1.0" standalone="no"?>
<!DOCTYPE svg PUBLIC "-//W3C//DTD SVG 20010904//EN"
 "http://www.w3.org/TR/2001/REC-SVG-20010904/DTD/svg10.dtd">
<svg version="1.0" xmlns="http://www.w3.org/2000/svg"
 width="172.000000pt" height="172.000000pt" viewBox="0 0 172.000000 172.000000"
 preserveAspectRatio="xMidYMid meet">
<metadata>
Created by potrace 1.14, written by Peter Selinger 2001-2017
</metadata>
<g transform="translate(0.000000,172.000000) scale(0.100000,-0.100000)"
fill="#000000" stroke="none">
<path d="M247 1674 c-77 -104 -96 -246 -52 -396 20 -72 20 -77 4 -99 -9 -13
-33 -56 -52 -94 -95 -190 -101 -379 -17 -545 32 -64 129 -174 179 -203 30 -18
31 -18 31 0 0 25 86 129 126 154 l31 19 -38 -112 c-59 -174 -92 -368 -62 -368
22 0 107 30 158 57 28 14 81 51 119 81 l69 56 146 2 c110 2 166 7 226 23 219
58 357 181 444 398 51 126 83 291 62 317 -11 13 -103 15 -634 14 -342 -1 -633
2 -645 6 -29 10 -53 63 -46 102 10 62 9 61 98 67 142 10 251 78 343 212 l22
33 -42 15 c-102 38 -188 47 -243 27 -33 -13 -35 -11 -41 37 -7 57 -49 137
-102 195 l-48 52 -36 -50z m833 -879 c16 -19 9 -45 -17 -62 -19 -13 -24 -12
-42 6 -13 13 -18 27 -14 38 13 35 51 44 73 18z"/>
</g>
</svg>
